<svg width="32" height="32" viewBox="0 0 32 32" fill="none" xmlns="http://www.w3.org/2000/svg">
  <!-- FlowSense Favicon - Stylized F logo -->
  <defs>
    <linearGradient id="fGradientFav" x1="0%" y1="0%" x2="100%" y2="100%">
      <stop offset="0%" style="stop-color:#60E5FF;stop-opacity:1" />
      <stop offset="50%" style="stop-color:#3BCCF5;stop-opacity:1" />
      <stop offset="100%" style="stop-color:#1E9BC7;stop-opacity:1" />
    </linearGradient>
  </defs>
  
  <!-- Vertical stem of F -->
  <path d="M 6 4 Q 6 3, 8 2.5 Q 10 2, 12 2.5 L 12 16 Q 12 17, 10 17.5 Q 8 18, 6 17.5 Z" fill="url(#fGradientFav)" stroke="none"/>
  
  <!-- Horizontal bar of F (curves upwards) -->
  <path d="M 8 8 Q 10 7, 13 7.5 Q 16 8, 18 9.5 Q 20 11, 19 12 Q 18 13, 16 12.5 Q 14 12, 12 11.5 Q 10 11, 9 10.5 Z" fill="url(#fGradientFav)" stroke="none"/>
  
  <!-- Small curved element -->
  <path d="M 10 6.5 Q 12 6, 14 6.5 Q 16 7, 15 8.5 Q 14 10, 12 9.5 Z" fill="#60E5FF" opacity="0.6" stroke="none"/>
</svg>
